:FULLY-SPECIFIED
:FORCE-ALL-JOINTS-BE-3DOF
:DEGREES
238
root 5.61765 15.6418 -25.8005 9.17977 24.3354 -7.78336
lfemur -39.8918 34.0728 -6.17461
ltibia 51.9669 -0 0
lfoot -16.6412 7.85991 0.041055
ltoes -1.02023 0 0
rfemur -13.6817 -7.98071 4.51254
rtibia 30.3464 -0 0
rfoot -45.3488 -14.0945 -0.137784
rtoes 60.5977 -0 0
lowerback 0.836324 -2.68091 3.03539
upperback -1.31074 -3.45485 3.61407
thorax -1.77589 -1.73302 2.09949
lowerneck -10.2847 -1.82332 0.562659
upperneck 1.88514 -2.48643 -0.207682
head 2.36192 -1.2362 -0.280395
lclavicle 1.88845e-14 4.77083e-15 0
lhumerus -56.3334 -32.6994 122.748
lradius 62.8564 -0 0
lwrist 18.455 0 0
lhand 4.79251 12.5717 0.0543675
lfingers 7.12502 -0 0
lthumb 30.1693 40.0943 0.0496284
rclavicle 1.88845e-14 4.77083e-15 0
rhumerus -35.0347 -21.3278 -66.2276
rradius 97.7344 -0 0
rwrist -51.8766 0 0
rhand -25.5024 -24.6252 1.23302
rfingers 7.12502 -0 0
rthumb 2.82883 -49.3265 5.77555
239
root 5.70461 15.67 -25.7901 9.11483 26.0017 -7.8656
lfemur -41.0353 34.0913 -7.40696
ltibia 52.2269 -0 0
lfoot -16.5058 7.95408 0.037794
ltoes 1.16593 -0 0
rfemur -12.8866 -7.08844 4.58893
rtibia 30.2356 -0 0
rfoot -45.3208 -15.4625 -0.206568
rtoes 59.4924 -0 0
lowerback 0.798285 -2.6808 3.06038
upperback -1.41988 -3.44551 3.83162
thorax -1.8538 -1.72886 2.30962
lowerneck -10.0815 -2.13851 0.354114
upperneck 1.88796 -2.87682 -0.247651
head 2.32602 -1.43442 -0.278062
lclavicle 1.88845e-14 4.77083e-15 0
lhumerus -56.2831 -32.1091 122.876
lradius 63.1257 -0 0
lwrist 18.4252 0 0
lhand 4.12977 12.2777 0.0436045
lfingers 7.12502 -0 0
lthumb 29.5362 39.911 0.0321997
rclavicle 1.88845e-14 4.77083e-15 0
rhumerus -35.1654 -24.1262 -66.5696
rradius 95.7353 -0 0
rwrist -54.3611 0 0
rhand -28.2129 -24.3453 0.708154
rfingers 7.12502 -0 0
rthumb -1.00646 -51.1662 3.4597
240
root 5.79103 15.6989 -25.7808 9.04578 27.6191 -7.87022
lfemur -41.9526 33.9763 -8.53721
ltibia 52.392 -0 0
lfoot -16.3396 7.86218 0.0245656
ltoes 3.38809 -0 0
rfemur -12.3157 -6.27269 4.64588
rtibia 30.5203 -0 0
rfoot -44.7903 -16.4652 -0.167741
rtoes 57.9947 -0 0
lowerback 0.797516 -2.68395 3.03629
upperback -1.50197 -3.44183 4.00137
thorax -1.92495 -1.72665 2.49938
lowerneck -9.90584 -2.45535 0.150816
upperneck 1.89712 -3.27197 -0.270252
head 2.29903 -1.63441 -0.271359
lclavicle 1.88845e-14 4.77083e-15 0
lhumerus -56.1848 -31.634 122.93
lradius 63.336 -0 0
lwrist 18.4096 0 0
lhand 3.60101 12.0109 0.0257231
lfingers 7.12502 -0 0
lthumb 29.0321 39.7427 0.0152274
rclavicle 1.88845e-14 4.77083e-15 0
rhumerus -35.3757 -26.2335 -66.9423
rradius 93.6071 -0 0
rwrist -55.6561 0 0
rhand -30.5058 -24.0981 0.295515
rfingers 7.12502 -0 0
rthumb -3.86121 -52.6403 1.48572
241
root 5.87628 15.7285 -25.7728 8.97641 29.1737 -7.78792
lfemur -42.6148 33.7298 -9.54369
ltibia 52.461 0 0
lfoot -16.1335 7.56346 0
ltoes 5.61544 0 0
rfemur -12.001 -5.54814 4.67659
rtibia 31.2499 0 0
rfoot -43.6965 -17.0466 0
rtoes 56.0605 0 0
lowerback 0.840458 -2.69122 2.95724
upperback -1.55249 -3.44547 4.11819
thorax -1.98829 -1.72702 2.66704
lowerneck -9.7633 -2.77217 -0.0461811
upperneck 1.91274 -3.66959 -0.27351
head 2.28226 -1.83494 -0.259691
lclavicle -1.66731e-14 1.59028e-15 0
lhumerus -56.0326 -31.2912 122.904
lradius 63.4793 0 0
lwrist 18.4083 0 0
lhand 3.2199 11.7729 0
lfingers 7.12502 0 0
lthumb 28.6707 39.5928 0
rclavicle -1.66731e-14 1.59028e-15 0
rhumerus -35.6945 -27.531 -67.3613
rradius 91.3616 0 0
rwrist -55.5824 0 0
rhand -32.3938 -23.941 0
rfingers 7.12502 0 0
rthumb -5.62894 -773.846 0
242
root 5.96327 15.7602 -25.7662 8.91009 30.7019 -7.59901
lfemur -42.9808 33.3185 -10.4433
ltibia 52.3727 -0 0
lfoot -15.9089 7.0159 -0.0287949
ltoes 8.05613 -0 0
rfemur -11.9052 -4.86416 4.63471
rtibia 32.5095 -0 0
rfoot -41.9067 -17.1542 0.324714
rtoes 53.5129 -0 0
lowerback 0.923635 -2.69791 2.81012
upperback -1.57601 -3.45051 4.17917
thorax -2.04592 -1.72718 2.81652
lowerneck -9.65366 -3.10327 -0.238023
upperneck 1.94128 -4.08822 -0.2611
head 2.27728 -2.04528 -0.245545
lclavicle -1.66731e-14 1.59028e-15 0
lhumerus -55.8282 -31.0777 122.799
lradius 63.5544 -0 0
lwrist 18.4306 0 0
lhand 2.99711 11.5637 -0.0278931
lfingers 7.12502 -0 0
lthumb 28.461 39.4505 -0.0134336
rclavicle -1.66731e-14 1.59028e-15 0
rhumerus -36.1 -28.0794 -67.7337
rradius 88.7707 -0 0
rwrist -54.0124 0 0
rhand -33.5317 -23.7494 -0.164248
rfingers 7.12502 -0 0
rthumb -6.32867 -54.6832 -1.01336
243
root 6.05482 15.7951 -25.7607 8.85128 32.2467 -7.2966
lfemur -43.047 32.7257 -11.2689
ltibia 52.0834 -0 0
lfoot -15.6919 6.21267 -0.0535884
ltoes 10.8984 -0 0
rfemur -11.9653 -4.16628 4.48801
rtibia 34.3047 -0 0
rfoot -39.3946 -16.8013 0.795115
rtoes 50.2734 -0 0
lowerback 1.03704 -2.6994 2.59214
upperback -1.58108 -3.45093 4.18813
thorax -2.10055 -1.72443 2.95272
lowerneck -9.57015 -3.46128 -0.426532
upperneck 1.98718 -4.54409 -0.238197
head 2.28373 -2.2736 -0.23151
lclavicle -1.66731e-14 1.59028e-15 0
lhumerus -55.5804 -30.9717 122.627
lradius 63.5698 -0 0
lwrist 18.4832 0 0
lhand 2.92468 11.3816 -0.0513349
lfingers 7.12502 -0 0
lthumb 28.3942 39.3036 -0.0256174
rclavicle -1.66731e-14 1.59028e-15 0
rhumerus -36.5496 -28.0597 -67.9721
rradius 85.6536 -0 0
rwrist -51.0596 0 0
rhand -33.6507 -23.3791 -0.197089
rfingers 7.12502 -0 0
rthumb -6.14276 -55.0435 -1.67102
244
root 6.15022 15.8324 -25.756 8.80549 33.8038 -6.89008
lfemur -42.8448 31.9771 -12.0277
ltibia 51.6185 -0 0
lfoot -15.4804 5.18577 -0.0738464
ltoes 14.0816 -0 0
rfemur -12.1739 -3.46417 4.25098
rtibia 36.5653 -0 0
rfoot -36.2552 -16.0281 1.35591
rtoes 46.4451 -0 0
lowerback 1.17734 -2.69654 2.31287
upperback -1.56923 -3.44811 4.15
thorax -2.15209 -1.71955 3.07537
lowerneck -9.50869 -3.84202 -0.61161
upperneck 2.04744 -5.0315 -0.205053
head 2.29999 -2.5171 -0.217144
lclavicle -1.66731e-14 1.59028e-15 0
lhumerus -55.2938 -30.961 122.395
lradius 63.5318 -0 0
lwrist 18.5621 0 0
lhand 2.9883 11.2256 -0.0699065
lfingers 7.12502 -0 0
lthumb 28.4567 39.1536 -0.0361719
rclavicle -1.66731e-14 1.59028e-15 0
rhumerus -37.0373 -27.5348 -68.1038
rradius 82.0929 -0 0
rwrist -46.9066 0 0
rhand -32.8777 -22.8508 -0.122361
rfingers 7.12502 -0 0
rthumb -5.19446 -54.9899 -2.00598
245
root 6.24877 15.8718 -25.7517 8.77787 35.369 -6.3887
lfemur -42.4077 31.0967 -12.7289
ltibia 51.0032 -0 0
lfoot -15.2726 3.96718 -0.0892781
ltoes 17.545 -0 0
rfemur -12.5237 -2.76807 3.93826
rtibia 39.2213 -0 0
rfoot -32.5828 -14.8775 1.94476
rtoes 42.131 -0 0
lowerback 1.34117 -2.69012 1.9819
upperback -1.54196 -3.44342 4.06973
thorax -2.20048 -1.71331 3.18416
lowerneck -9.46527 -4.24131 -0.79317
upperneck 2.11907 -5.54474 -0.161883
head 2.32442 -2.77294 -0.201998
lclavicle -1.66731e-14 1.59028e-15 0
lhumerus -54.9723 -31.0338 122.106
lradius 63.4468 -0 0
lwrist 18.6634 0 0
lhand 3.17366 11.0945 -0.0834598
lfingers 7.12502 -0 0
lthumb 28.6347 39.0022 -0.0447673
rclavicle -1.66731e-14 1.59028e-15 0
rhumerus -37.5537 -26.568 -68.1579
rradius 78.1714 -0 0
rwrist -41.7357 0 0
rhand -31.3388 -22.1806 0.0308218
rfingers 7.12502 -0 0
rthumb -3.59885 -54.5715 -2.06796
246
root 6.34975 15.9125 -25.7478 8.7731 36.9379 -5.80165
lfemur -41.7702 30.1075 -13.3832
ltibia 50.2628 -0 0
lfoot -15.0664 2.58888 -0.099788
ltoes 21.228 -0 0
rfemur -13.0065 -2.08857 3.56475
rtibia 42.2025 -0 0
rfoot -28.4732 -13.3989 2.49833
rtoes 37.4345 -0 0
lowerback 1.5252 -2.68101 1.60878
upperback -1.5008 -3.43817 3.95227
thorax -2.24564 -1.70646 3.27884
lowerneck -9.43588 -4.65491 -0.971156
upperneck 2.19907 -6.07812 -0.108851
head 2.3554 -3.03833 -0.185613
lclavicle -1.66731e-14 1.59028e-15 0
lhumerus -54.6198 -31.1779 121.766
lradius 63.3211 -0 0
lwrist 18.7834 0 0
lhand 3.46646 10.9873 -0.0920725
lfingers 7.12502 -0 0
lthumb 28.9148 38.8511 -0.0511436
rclavicle -1.66731e-14 1.59028e-15 0
rhumerus -38.0888 -25.2225 -68.1632
rradius 73.9717 -0 0
rwrist -35.7296 0 0
rhand -29.1601 -21.3824 0.230933
rfingers 7.12502 -0 0
rthumb -1.46598 -53.8298 -1.91646
247
root 6.45246 15.9539 -25.7438 8.79539 38.5058 -5.13812
lfemur -40.967 29.0315 -14.0007
ltibia 49.4226 -0 0
lfoot -14.86 1.08284 -0.105439
ltoes 25.0699 -0 0
rfemur -13.614 -1.43628 3.14578
rtibia 45.4387 -0 0
rfoot -24.0256 -11.6498 2.95806
rtoes 32.4585 -0 0
lowerback 1.72608 -2.67008 1.20308
upperback -1.44727 -3.43368 3.80254
thorax -2.2875 -1.69979 3.3591
lowerneck -9.41655 -5.07857 -1.14555
upperneck 2.28444 -6.62592 -0.0460576
head 2.39131 -3.31045 -0.167514
lclavicle -1.66731e-14 1.59028e-15 0
lhumerus -54.2403 -31.3813 121.379
lradius 63.1611 -0 0
lwrist 18.9181 0 0
lhand 3.85243 10.9028 -0.0960079
lfingers 7.12502 -0 0
lthumb 29.2834 38.7019 -0.0551269
rclavicle -1.66731e-14 1.59028e-15 0
rhumerus -38.6333 -23.5621 -68.147
rradius 69.5763 -0 0
rwrist -29.0707 0 0
rhand -26.4682 -20.4706 0.446466
rfingers 7.12502 -0 0
rthumb 1.09671 -52.8038 -1.61518
